<svg width="1280" height="640" viewBox="0 0 1280 640" fill="none" xmlns="http://www.w3.org/2000/svg">
<rect width="1280" height="640" fill="#2F3032"/>
<g filter="url(#filter0_dddd_2_21)">
<rect width="530" height="230" transform="translate(375 205)" fill="#2F3032"/>
<path d="M407.64 301L422.4 262.36H429.72L444.36 301H437.64L433.8 291.04H418.26L414.42 301H407.64ZM419.28 286H432.72L426 268.3L419.28 286ZM454.825 301.6C452.505 301.6 450.745 301.04 449.545 299.92C448.345 298.76 447.745 296.86 447.745 294.22V260.56H454.285V293.62C454.285 294.74 454.485 295.5 454.885 295.9C455.285 296.3 455.885 296.5 456.685 296.5C457.645 296.5 458.565 296.38 459.445 296.14V300.88C458.685 301.16 457.945 301.34 457.225 301.42C456.545 301.54 455.745 301.6 454.825 301.6ZM464.852 266.62V261.22H471.992V266.62H464.852ZM465.392 301V277.54H461.072L461.672 272.56H471.932V301H465.392ZM479.561 301V272.56H485.561L485.861 275.56C487.141 274.56 488.661 273.72 490.421 273.04C492.221 272.32 494.201 271.96 496.361 271.96C500.041 271.96 502.721 272.82 504.401 274.54C506.081 276.26 506.921 278.94 506.921 282.58V301H500.441V282.88C500.441 280.68 499.981 279.14 499.061 278.26C498.181 277.38 496.501 276.94 494.021 276.94C492.541 276.94 491.081 277.24 489.641 277.84C488.241 278.44 487.061 279.22 486.101 280.18V301H479.561ZM522.25 301.6C520.45 301.6 518.77 301.28 517.21 300.64C515.69 300 514.47 299.04 513.55 297.76C512.63 296.44 512.17 294.82 512.17 292.9C512.17 290.18 513.09 288 514.93 286.36C516.81 284.68 519.69 283.84 523.57 283.84H532.69V282.58C532.69 281.22 532.47 280.14 532.03 279.34C531.63 278.54 530.87 277.96 529.75 277.6C528.67 277.24 527.07 277.06 524.95 277.06C521.59 277.06 518.45 277.56 515.53 278.56V273.7C516.81 273.18 518.37 272.76 520.21 272.44C522.05 272.12 524.03 271.96 526.15 271.96C530.31 271.96 533.47 272.8 535.63 274.48C537.83 276.16 538.93 278.9 538.93 282.7V301H533.35L532.93 298.12C531.77 299.24 530.33 300.1 528.61 300.7C526.93 301.3 524.81 301.6 522.25 301.6ZM523.99 296.92C525.95 296.92 527.65 296.6 529.09 295.96C530.57 295.28 531.77 294.38 532.69 293.26V288.28H523.69C521.77 288.28 520.37 288.66 519.49 289.42C518.65 290.14 518.23 291.26 518.23 292.78C518.23 294.26 518.73 295.32 519.73 295.96C520.73 296.6 522.15 296.92 523.99 296.92ZM560.01 301V262.36H578.73C582.57 262.36 585.41 263.26 587.25 265.06C589.09 266.86 590.01 269.4 590.01 272.68C590.01 274.76 589.59 276.52 588.75 277.96C587.91 279.36 586.79 280.42 585.39 281.14C587.27 281.66 588.75 282.6 589.83 283.96C590.95 285.28 591.51 287.24 591.51 289.84C591.51 293.6 590.49 296.4 588.45 298.24C586.45 300.08 583.49 301 579.57 301H560.01ZM566.55 278.86H577.83C580.03 278.86 581.59 278.36 582.51 277.36C583.47 276.32 583.95 274.94 583.95 273.22C583.95 271.22 583.47 269.74 582.51 268.78C581.55 267.78 579.75 267.28 577.11 267.28H566.55V278.86ZM566.55 296.2H578.19C580.51 296.2 582.21 295.72 583.29 294.76C584.37 293.76 584.91 292.04 584.91 289.6C584.91 287.6 584.37 286.12 583.29 285.16C582.25 284.16 580.33 283.66 577.53 283.66H566.55V296.2ZM611.482 301.6C606.362 301.6 602.602 300.32 600.202 297.76C597.842 295.2 596.662 291.54 596.662 286.78C596.662 282.02 597.862 278.36 600.262 275.8C602.662 273.24 606.402 271.96 611.482 271.96C616.602 271.96 620.362 273.24 622.762 275.8C625.162 278.36 626.362 282.02 626.362 286.78C626.362 291.54 625.162 295.2 622.762 297.76C620.402 300.32 616.642 301.6 611.482 301.6ZM611.482 296.08C614.482 296.08 616.602 295.36 617.842 293.92C619.122 292.44 619.762 290.06 619.762 286.78C619.762 283.5 619.122 281.14 617.842 279.7C616.602 278.26 614.482 277.54 611.482 277.54C608.522 277.54 606.402 278.26 605.122 279.7C603.882 281.14 603.262 283.5 603.262 286.78C603.262 290.06 603.882 292.44 605.122 293.92C606.402 295.36 608.522 296.08 611.482 296.08ZM644.245 311.56C642.125 311.56 640.005 311.42 637.885 311.14C635.765 310.9 633.965 310.52 632.485 310V304.96C634.085 305.48 635.925 305.88 638.005 306.16C640.085 306.44 642.065 306.58 643.945 306.58C646.825 306.58 648.925 306.42 650.245 306.1C651.565 305.78 652.225 305.06 652.225 303.94C652.225 303.1 651.905 302.5 651.265 302.14C650.625 301.82 649.405 301.66 647.605 301.66H639.925C634.765 301.66 632.185 299.84 632.185 296.2C632.185 295.04 632.525 293.96 633.205 292.96C633.885 291.96 634.965 291.2 636.445 290.68C634.805 289.88 633.585 288.78 632.785 287.38C632.025 285.98 631.645 284.3 631.645 282.34C631.645 278.7 632.725 276.06 634.885 274.42C637.085 272.78 640.365 271.96 644.725 271.96C645.645 271.96 646.605 272.04 647.605 272.2C648.605 272.32 649.385 272.44 649.945 272.56H660.385L660.205 276.82H655.405C656.165 277.46 656.725 278.26 657.085 279.22C657.445 280.18 657.625 281.22 657.625 282.34C657.625 285.38 656.705 287.78 654.865 289.54C653.025 291.26 650.245 292.12 646.525 292.12C645.885 292.12 645.285 292.1 644.725 292.06C644.205 291.98 643.625 291.9 642.985 291.82C641.785 291.94 640.705 292.26 639.745 292.78C638.785 293.3 638.305 294 638.305 294.88C638.305 295.48 638.545 295.92 639.025 296.2C639.505 296.44 640.305 296.56 641.425 296.56H649.405C652.245 296.56 654.425 297.18 655.945 298.42C657.505 299.62 658.285 301.38 658.285 303.7C658.285 306.5 657.065 308.5 654.625 309.7C652.225 310.94 648.765 311.56 644.245 311.56ZM644.725 287.98C647.325 287.98 649.125 287.54 650.125 286.66C651.165 285.78 651.685 284.28 651.685 282.16C651.685 280.04 651.165 278.5 650.125 277.54C649.125 276.58 647.325 276.1 644.725 276.1C642.285 276.1 640.505 276.56 639.385 277.48C638.265 278.4 637.705 279.96 637.705 282.16C637.705 284.2 638.225 285.68 639.265 286.6C640.345 287.52 642.165 287.98 644.725 287.98ZM677.122 301.6C674.562 301.6 672.302 301.16 670.342 300.28C668.382 299.4 666.862 297.94 665.782 295.9C664.702 293.86 664.162 291.12 664.162 287.68C664.162 284.28 664.742 281.42 665.902 279.1C667.062 276.74 668.662 274.96 670.702 273.76C672.782 272.56 675.122 271.96 677.722 271.96C679.442 271.96 680.962 272.16 682.282 272.56C683.642 272.96 684.942 273.58 686.182 274.42V260.56H692.722V301H687.142L686.722 298.18C685.442 299.34 684.042 300.2 682.522 300.76C681.002 301.32 679.202 301.6 677.122 301.6ZM678.862 296.68C681.782 296.68 684.222 295.68 686.182 293.68V279.46C684.302 277.78 681.942 276.94 679.102 276.94C676.342 276.94 674.262 277.86 672.862 279.7C671.462 281.54 670.762 284.22 670.762 287.74C670.762 291.14 671.402 293.48 672.682 294.76C674.002 296.04 676.062 296.68 678.862 296.68ZM708.871 301.6C707.071 301.6 705.391 301.28 703.831 300.64C702.311 300 701.091 299.04 700.171 297.76C699.251 296.44 698.791 294.82 698.791 292.9C698.791 290.18 699.711 288 701.551 286.36C703.431 284.68 706.311 283.84 710.191 283.84H719.311V282.58C719.311 281.22 719.091 280.14 718.651 279.34C718.251 278.54 717.491 277.96 716.371 277.6C715.291 277.24 713.691 277.06 711.571 277.06C708.211 277.06 705.071 277.56 702.151 278.56V273.7C703.431 273.18 704.991 272.76 706.831 272.44C708.671 272.12 710.651 271.96 712.771 271.96C716.931 271.96 720.091 272.8 722.251 274.48C724.451 276.16 725.551 278.9 725.551 282.7V301H719.971L719.551 298.12C718.391 299.24 716.951 300.1 715.231 300.7C713.551 301.3 711.431 301.6 708.871 301.6ZM710.611 296.92C712.571 296.92 714.271 296.6 715.711 295.96C717.191 295.28 718.391 294.38 719.311 293.26V288.28H710.311C708.391 288.28 706.991 288.66 706.111 289.42C705.271 290.14 704.851 291.26 704.851 292.78C704.851 294.26 705.351 295.32 706.351 295.96C707.351 296.6 708.771 296.92 710.611 296.92ZM732.803 301V272.56H738.803L739.103 275.56C740.383 274.56 741.903 273.72 743.663 273.04C745.463 272.32 747.443 271.96 749.603 271.96C753.283 271.96 755.963 272.82 757.643 274.54C759.323 276.26 760.163 278.94 760.163 282.58V301H753.683V282.88C753.683 280.68 753.223 279.14 752.303 278.26C751.423 277.38 749.743 276.94 747.263 276.94C745.783 276.94 744.323 277.24 742.883 277.84C741.483 278.44 740.303 279.22 739.343 280.18V301H732.803ZM780.525 301.6C775.405 301.6 771.645 300.32 769.245 297.76C766.885 295.2 765.705 291.54 765.705 286.78C765.705 282.02 766.905 278.36 769.305 275.8C771.705 273.24 775.445 271.96 780.525 271.96C785.645 271.96 789.405 273.24 791.805 275.8C794.205 278.36 795.405 282.02 795.405 286.78C795.405 291.54 794.205 295.2 791.805 297.76C789.445 300.32 785.685 301.6 780.525 301.6ZM780.525 296.08C783.525 296.08 785.645 295.36 786.885 293.92C788.165 292.44 788.805 290.06 788.805 286.78C788.805 283.5 788.165 281.14 786.885 279.7C785.645 278.26 783.525 277.54 780.525 277.54C777.565 277.54 775.445 278.26 774.165 279.7C772.925 281.14 772.305 283.5 772.305 286.78C772.305 290.06 772.925 292.44 774.165 293.92C775.445 295.36 777.565 296.08 780.525 296.08ZM808.507 301L797.287 272.56H804.067L812.047 294.64L820.027 272.56H826.747L815.587 301H808.507ZM839.359 301.6C837.559 301.6 835.879 301.28 834.319 300.64C832.799 300 831.579 299.04 830.659 297.76C829.739 296.44 829.279 294.82 829.279 292.9C829.279 290.18 830.199 288 832.039 286.36C833.919 284.68 836.799 283.84 840.679 283.84H849.799V282.58C849.799 281.22 849.579 280.14 849.139 279.34C848.739 278.54 847.979 277.96 846.859 277.6C845.779 277.24 844.179 277.06 842.059 277.06C838.699 277.06 835.559 277.56 832.639 278.56V273.7C833.919 273.18 835.479 272.76 837.319 272.44C839.159 272.12 841.139 271.96 843.259 271.96C847.419 271.96 850.579 272.8 852.739 274.48C854.939 276.16 856.039 278.9 856.039 282.7V301H850.459L850.039 298.12C848.879 299.24 847.439 300.1 845.719 300.7C844.039 301.3 841.919 301.6 839.359 301.6ZM841.099 296.92C843.059 296.92 844.759 296.6 846.199 295.96C847.679 295.28 848.879 294.38 849.799 293.26V288.28H840.799C838.879 288.28 837.479 288.66 836.599 289.42C835.759 290.14 835.339 291.26 835.339 292.78C835.339 294.26 835.839 295.32 836.839 295.96C837.839 296.6 839.259 296.92 841.099 296.92Z" fill="white"/>
<path d="M406.46 398.5L407.54 395.06H405.86V393.6H408L408.96 390.54H406.78V389.06H409.42L410.5 385.62H412.38L411.3 389.06H414.68L415.76 385.62H417.66L416.58 389.06H418.18V390.54H416.1L415.14 393.6H417.26V395.06H414.68L413.6 398.5H411.72L412.8 395.06H409.4L408.32 398.5H406.46ZM409.86 393.6H413.26L414.22 390.54H410.82L409.86 393.6ZM421.563 387.04V385.24H423.943V387.04H421.563ZM420.863 403.18C420.09 403.18 419.43 403.073 418.883 402.86V401.28C419.11 401.347 419.323 401.393 419.523 401.42C419.736 401.46 419.93 401.48 420.103 401.48C420.73 401.48 421.163 401.367 421.403 401.14C421.656 400.913 421.783 400.54 421.783 400.02V390.68H420.343L420.543 389.02H423.943V400.22C423.943 401.113 423.683 401.827 423.163 402.36C422.656 402.907 421.89 403.18 420.863 403.18ZM429.875 398.7C428.742 398.7 427.869 398.387 427.255 397.76C426.655 397.133 426.355 396.213 426.355 395V389.02H428.535V395C428.535 395.707 428.709 396.227 429.055 396.56C429.402 396.893 429.935 397.06 430.655 397.06C431.189 397.06 431.682 396.96 432.135 396.76C432.589 396.56 432.982 396.293 433.315 395.96V389.02H435.475V398.5H433.495L433.395 397.52C432.969 397.853 432.462 398.133 431.875 398.36C431.289 398.587 430.622 398.7 429.875 398.7ZM438.018 398.5V389.02H440.018L440.118 390.02C440.544 389.687 441.051 389.407 441.638 389.18C442.238 388.94 442.898 388.82 443.618 388.82C444.844 388.82 445.738 389.107 446.298 389.68C446.858 390.253 447.138 391.147 447.138 392.36V398.5H444.978V392.46C444.978 391.727 444.824 391.213 444.518 390.92C444.224 390.627 443.664 390.48 442.838 390.48C442.344 390.48 441.858 390.58 441.378 390.78C440.911 390.98 440.518 391.24 440.198 391.56V398.5H438.018ZM450.38 387.04V385.24H452.76V387.04H450.38ZM450.56 398.5V390.68H449.12L449.32 389.02H452.74V398.5H450.56ZM459.823 398.7C458.117 398.7 456.863 398.273 456.063 397.42C455.277 396.567 454.883 395.347 454.883 393.76C454.883 392.173 455.283 390.953 456.083 390.1C456.883 389.247 458.13 388.82 459.823 388.82C461.53 388.82 462.783 389.247 463.583 390.1C464.383 390.953 464.783 392.173 464.783 393.76C464.783 395.347 464.383 396.567 463.583 397.42C462.797 398.273 461.543 398.7 459.823 398.7ZM459.823 396.86C460.823 396.86 461.53 396.62 461.943 396.14C462.37 395.647 462.583 394.853 462.583 393.76C462.583 392.667 462.37 391.88 461.943 391.4C461.53 390.92 460.823 390.68 459.823 390.68C458.837 390.68 458.13 390.92 457.703 391.4C457.29 391.88 457.083 392.667 457.083 393.76C457.083 394.853 457.29 395.647 457.703 396.14C458.13 396.62 458.837 396.86 459.823 396.86ZM466.905 398.5V389.02H468.905L469.025 390.12C469.478 389.827 470.018 389.56 470.645 389.32C471.271 389.08 471.891 388.913 472.505 388.82V390.48C472.131 390.547 471.725 390.647 471.285 390.78C470.858 390.9 470.451 391.04 470.065 391.2C469.678 391.347 469.351 391.5 469.085 391.66V398.5H466.905ZM473.692 400.04V398.5H482.772V400.04H473.692ZM494.392 403.34C493.552 403.34 492.919 403.127 492.492 402.7C492.066 402.273 491.852 401.607 491.852 400.7V397.9C491.039 398.433 490.059 398.7 488.912 398.7C487.552 398.7 486.479 398.333 485.692 397.6C484.906 396.853 484.512 395.627 484.512 393.92C484.512 392.213 484.899 390.94 485.672 390.1C486.459 389.247 487.519 388.82 488.852 388.82C489.546 388.82 490.139 388.913 490.632 389.1C491.139 389.287 491.606 389.573 492.032 389.96L492.172 389.02H494.032V400.54C494.032 400.953 494.099 401.24 494.232 401.4C494.379 401.56 494.652 401.64 495.052 401.64C495.186 401.64 495.326 401.627 495.472 401.6C495.632 401.573 495.772 401.547 495.892 401.52V403.1C495.666 403.18 495.439 403.24 495.212 403.28C494.986 403.32 494.712 403.34 494.392 403.34ZM489.472 397.06C489.992 397.06 490.446 396.987 490.832 396.84C491.219 396.68 491.559 396.473 491.852 396.22V391.48C491.199 390.813 490.392 390.48 489.432 390.48C488.459 390.48 487.759 390.773 487.332 391.36C486.919 391.933 486.712 392.78 486.712 393.9C486.712 395.073 486.939 395.893 487.392 396.36C487.846 396.827 488.539 397.06 489.472 397.06ZM499.513 398.7C498.913 398.7 498.353 398.593 497.833 398.38C497.326 398.167 496.92 397.847 496.613 397.42C496.306 396.98 496.153 396.44 496.153 395.8C496.153 394.893 496.46 394.167 497.073 393.62C497.7 393.06 498.66 392.78 499.953 392.78H502.993V392.36C502.993 391.907 502.92 391.547 502.773 391.28C502.64 391.013 502.386 390.82 502.013 390.7C501.653 390.58 501.12 390.52 500.413 390.52C499.293 390.52 498.246 390.687 497.273 391.02V389.4C497.7 389.227 498.22 389.087 498.833 388.98C499.446 388.873 500.106 388.82 500.813 388.82C502.2 388.82 503.253 389.1 503.973 389.66C504.706 390.22 505.073 391.133 505.073 392.4V398.5H503.213L503.073 397.54C502.686 397.913 502.206 398.2 501.633 398.4C501.073 398.6 500.366 398.7 499.513 398.7ZM500.093 397.14C500.746 397.14 501.313 397.033 501.793 396.82C502.286 396.593 502.686 396.293 502.993 395.92V394.26H499.993C499.353 394.26 498.886 394.387 498.593 394.64C498.313 394.88 498.173 395.253 498.173 395.76C498.173 396.253 498.34 396.607 498.673 396.82C499.006 397.033 499.48 397.14 500.093 397.14Z" fill="#FF9858" fill-opacity="0.71"/>
<path d="M528.46 398.5L529.54 395.06H527.86V393.6H530L530.96 390.54H528.78V389.06H531.42L532.5 385.62H534.38L533.3 389.06H536.68L537.76 385.62H539.66L538.58 389.06H540.18V390.54H538.1L537.14 393.6H539.26V395.06H536.68L535.6 398.5H533.72L534.8 395.06H531.4L530.32 398.5H528.46ZM531.86 393.6H535.26L536.22 390.54H532.82L531.86 393.6ZM545.463 398.7C544.81 398.7 544.183 398.653 543.583 398.56C542.996 398.467 542.51 398.353 542.123 398.22V396.38C542.576 396.553 543.076 396.687 543.623 396.78C544.17 396.873 544.69 396.92 545.183 396.92C545.93 396.92 546.463 396.853 546.783 396.72C547.103 396.587 547.263 396.327 547.263 395.94C547.263 395.66 547.163 395.44 546.963 395.28C546.776 395.12 546.49 394.973 546.103 394.84C545.73 394.707 545.25 394.547 544.663 394.36C544.103 394.173 543.616 393.973 543.203 393.76C542.79 393.533 542.47 393.247 542.243 392.9C542.016 392.553 541.903 392.1 541.903 391.54C541.903 390.673 542.216 390.007 542.843 389.54C543.47 389.06 544.476 388.82 545.863 388.82C546.41 388.82 546.93 388.86 547.423 388.94C547.916 389.02 548.336 389.12 548.683 389.24V391.06C548.31 390.913 547.896 390.8 547.443 390.72C547.003 390.64 546.59 390.6 546.203 390.6C545.51 390.6 544.983 390.66 544.623 390.78C544.276 390.9 544.103 391.14 544.103 391.5C544.103 391.873 544.283 392.14 544.643 392.3C545.016 392.447 545.61 392.653 546.423 392.92C547.17 393.147 547.763 393.387 548.203 393.64C548.643 393.893 548.956 394.2 549.143 394.56C549.343 394.907 549.443 395.36 549.443 395.92C549.443 396.853 549.103 397.553 548.423 398.02C547.743 398.473 546.756 398.7 545.463 398.7ZM555.827 398.7C554.121 398.7 552.867 398.273 552.067 397.42C551.281 396.567 550.887 395.347 550.887 393.76C550.887 392.173 551.287 390.953 552.087 390.1C552.887 389.247 554.134 388.82 555.827 388.82C557.534 388.82 558.787 389.247 559.587 390.1C560.387 390.953 560.787 392.173 560.787 393.76C560.787 395.347 560.387 396.567 559.587 397.42C558.801 398.273 557.547 398.7 555.827 398.7ZM555.827 396.86C556.827 396.86 557.534 396.62 557.947 396.14C558.374 395.647 558.587 394.853 558.587 393.76C558.587 392.667 558.374 391.88 557.947 391.4C557.534 390.92 556.827 390.68 555.827 390.68C554.841 390.68 554.134 390.92 553.707 391.4C553.294 391.88 553.087 392.667 553.087 393.76C553.087 394.853 553.294 395.647 553.707 396.14C554.134 396.62 554.841 396.86 555.827 396.86ZM563.488 398.5V390.72H562.108V389.02H563.488V387.86C563.488 386.913 563.748 386.153 564.268 385.58C564.802 384.993 565.588 384.7 566.628 384.7C567.015 384.7 567.368 384.733 567.688 384.8C568.008 384.853 568.302 384.933 568.568 385.04V386.6C568.155 386.453 567.735 386.38 567.308 386.38C566.682 386.38 566.248 386.493 566.008 386.72C565.768 386.947 565.648 387.333 565.648 387.88V389.02H568.128L568.028 390.72H565.648V398.5H563.488ZM573.13 398.7C572.117 398.7 571.357 398.433 570.85 397.9C570.357 397.353 570.11 396.613 570.11 395.68V390.72H568.71V389.02H570.11V386.84L572.27 386.18V389.02H574.79L574.65 390.72H572.27V395.56C572.27 396.107 572.397 396.493 572.65 396.72C572.903 396.933 573.317 397.04 573.89 397.04C574.25 397.04 574.63 396.973 575.03 396.84V398.38C574.51 398.593 573.877 398.7 573.13 398.7ZM578.407 398.5L575.907 389.02H578.087L579.727 395.92L581.587 390.18V389.02H583.247L585.307 395.92L586.947 389.02H589.107L586.627 398.5H584.567L582.547 392.3L580.487 398.5H578.407ZM593.29 398.7C592.69 398.7 592.13 398.593 591.61 398.38C591.104 398.167 590.697 397.847 590.39 397.42C590.084 396.98 589.93 396.44 589.93 395.8C589.93 394.893 590.237 394.167 590.85 393.62C591.477 393.06 592.437 392.78 593.73 392.78H596.77V392.36C596.77 391.907 596.697 391.547 596.55 391.28C596.417 391.013 596.164 390.82 595.79 390.7C595.43 390.58 594.897 390.52 594.19 390.52C593.07 390.52 592.024 390.687 591.05 391.02V389.4C591.477 389.227 591.997 389.087 592.61 388.98C593.224 388.873 593.884 388.82 594.59 388.82C595.977 388.82 597.03 389.1 597.75 389.66C598.484 390.22 598.85 391.133 598.85 392.4V398.5H596.99L596.85 397.54C596.464 397.913 595.984 398.2 595.41 398.4C594.85 398.6 594.144 398.7 593.29 398.7ZM593.87 397.14C594.524 397.14 595.09 397.033 595.57 396.82C596.064 396.593 596.464 396.293 596.77 395.92V394.26H593.77C593.13 394.26 592.664 394.387 592.37 394.64C592.09 394.88 591.95 395.253 591.95 395.76C591.95 396.253 592.117 396.607 592.45 396.82C592.784 397.033 593.257 397.14 593.87 397.14ZM601.268 398.5V389.02H603.268L603.388 390.12C603.841 389.827 604.381 389.56 605.008 389.32C605.634 389.08 606.254 388.913 606.868 388.82V390.48C606.494 390.547 606.088 390.647 605.648 390.78C605.221 390.9 604.814 391.04 604.428 391.2C604.041 391.347 603.714 391.5 603.448 391.66V398.5H601.268ZM612.865 398.7C611.211 398.7 609.931 398.293 609.025 397.48C608.118 396.667 607.665 395.42 607.665 393.74C607.665 392.22 608.051 391.02 608.825 390.14C609.598 389.26 610.771 388.82 612.345 388.82C613.785 388.82 614.865 389.2 615.585 389.96C616.318 390.707 616.685 391.673 616.685 392.86V394.62H609.745C609.851 395.54 610.185 396.173 610.745 396.52C611.305 396.867 612.158 397.04 613.305 397.04C613.785 397.04 614.278 396.993 614.785 396.9C615.291 396.807 615.731 396.687 616.105 396.54V398.14C615.678 398.327 615.185 398.467 614.625 398.56C614.078 398.653 613.491 398.7 612.865 398.7ZM609.745 393.2H614.765V392.54C614.765 391.887 614.585 391.38 614.225 391.02C613.865 390.647 613.258 390.46 612.405 390.46C611.391 390.46 610.691 390.68 610.305 391.12C609.931 391.56 609.745 392.253 609.745 393.2ZM618.407 400.04V398.5H627.487V400.04H618.407ZM633.247 398.7C632.234 398.7 631.474 398.433 630.967 397.9C630.474 397.353 630.227 396.613 630.227 395.68V390.72H628.827V389.02H630.227V386.84L632.387 386.18V389.02H634.907L634.767 390.72H632.387V395.56C632.387 396.107 632.514 396.493 632.767 396.72C633.021 396.933 633.434 397.04 634.007 397.04C634.367 397.04 634.747 396.973 635.147 396.84V398.38C634.627 398.593 633.994 398.7 633.247 398.7ZM641.615 398.7C639.961 398.7 638.681 398.293 637.775 397.48C636.868 396.667 636.415 395.42 636.415 393.74C636.415 392.22 636.801 391.02 637.575 390.14C638.348 389.26 639.521 388.82 641.095 388.82C642.535 388.82 643.615 389.2 644.335 389.96C645.068 390.707 645.435 391.673 645.435 392.86V394.62H638.495C638.601 395.54 638.935 396.173 639.495 396.52C640.055 396.867 640.908 397.04 642.055 397.04C642.535 397.04 643.028 396.993 643.535 396.9C644.041 396.807 644.481 396.687 644.855 396.54V398.14C644.428 398.327 643.935 398.467 643.375 398.56C642.828 398.653 642.241 398.7 641.615 398.7ZM638.495 393.2H643.515V392.54C643.515 391.887 643.335 391.38 642.975 391.02C642.615 390.647 642.008 390.46 641.155 390.46C640.141 390.46 639.441 390.68 639.055 391.12C638.681 391.56 638.495 392.253 638.495 393.2ZM650.619 398.7C649.966 398.7 649.339 398.653 648.739 398.56C648.153 398.467 647.666 398.353 647.279 398.22V396.38C647.733 396.553 648.233 396.687 648.779 396.78C649.326 396.873 649.846 396.92 650.339 396.92C651.086 396.92 651.619 396.853 651.939 396.72C652.259 396.587 652.419 396.327 652.419 395.94C652.419 395.66 652.319 395.44 652.119 395.28C651.933 395.12 651.646 394.973 651.259 394.84C650.886 394.707 650.406 394.547 649.819 394.36C649.259 394.173 648.773 393.973 648.359 393.76C647.946 393.533 647.626 393.247 647.399 392.9C647.173 392.553 647.059 392.1 647.059 391.54C647.059 390.673 647.373 390.007 647.999 389.54C648.626 389.06 649.633 388.82 651.019 388.82C651.566 388.82 652.086 388.86 652.579 388.94C653.073 389.02 653.493 389.12 653.839 389.24V391.06C653.466 390.913 653.053 390.8 652.599 390.72C652.159 390.64 651.746 390.6 651.359 390.6C650.666 390.6 650.139 390.66 649.779 390.78C649.433 390.9 649.259 391.14 649.259 391.5C649.259 391.873 649.439 392.14 649.799 392.3C650.173 392.447 650.766 392.653 651.579 392.92C652.326 393.147 652.919 393.387 653.359 393.64C653.799 393.893 654.113 394.2 654.299 394.56C654.499 394.907 654.599 395.36 654.599 395.92C654.599 396.853 654.259 397.553 653.579 398.02C652.899 398.473 651.913 398.7 650.619 398.7ZM660.064 398.7C659.05 398.7 658.29 398.433 657.784 397.9C657.29 397.353 657.044 396.613 657.044 395.68V390.72H655.644V389.02H657.044V386.84L659.204 386.18V389.02H661.724L661.584 390.72H659.204V395.56C659.204 396.107 659.33 396.493 659.584 396.72C659.837 396.933 660.25 397.04 660.824 397.04C661.184 397.04 661.564 396.973 661.964 396.84V398.38C661.444 398.593 660.81 398.7 660.064 398.7ZM664.431 387.04V385.24H666.811V387.04H664.431ZM664.611 398.5V390.68H663.171L663.371 389.02H666.791V398.5H664.611ZM669.334 398.5V389.02H671.334L671.434 390.02C671.861 389.687 672.368 389.407 672.954 389.18C673.554 388.94 674.214 388.82 674.934 388.82C676.161 388.82 677.054 389.107 677.614 389.68C678.174 390.253 678.454 391.147 678.454 392.36V398.5H676.294V392.46C676.294 391.727 676.141 391.213 675.834 390.92C675.541 390.627 674.981 390.48 674.154 390.48C673.661 390.48 673.174 390.58 672.694 390.78C672.228 390.98 671.834 391.24 671.514 391.56V398.5H669.334ZM684.737 402.02C684.03 402.02 683.323 401.973 682.617 401.88C681.91 401.8 681.31 401.673 680.817 401.5V399.82C681.35 399.993 681.963 400.127 682.657 400.22C683.35 400.313 684.01 400.36 684.637 400.36C685.597 400.36 686.297 400.307 686.737 400.2C687.177 400.093 687.397 399.853 687.397 399.48C687.397 399.2 687.29 399 687.077 398.88C686.863 398.773 686.457 398.72 685.857 398.72H683.297C681.577 398.72 680.717 398.113 680.717 396.9C680.717 396.513 680.83 396.153 681.057 395.82C681.283 395.487 681.643 395.233 682.137 395.06C681.59 394.793 681.183 394.427 680.917 393.96C680.663 393.493 680.537 392.933 680.537 392.28C680.537 391.067 680.897 390.187 681.617 389.64C682.35 389.093 683.443 388.82 684.897 388.82C685.203 388.82 685.523 388.847 685.857 388.9C686.19 388.94 686.45 388.98 686.637 389.02H690.117L690.057 390.44H688.457C688.71 390.653 688.897 390.92 689.017 391.24C689.137 391.56 689.197 391.907 689.197 392.28C689.197 393.293 688.89 394.093 688.277 394.68C687.663 395.253 686.737 395.54 685.497 395.54C685.283 395.54 685.083 395.533 684.897 395.52C684.723 395.493 684.53 395.467 684.317 395.44C683.917 395.48 683.557 395.587 683.237 395.76C682.917 395.933 682.757 396.167 682.757 396.46C682.757 396.66 682.837 396.807 682.997 396.9C683.157 396.98 683.423 397.02 683.797 397.02H686.457C687.403 397.02 688.13 397.227 688.637 397.64C689.157 398.04 689.417 398.627 689.417 399.4C689.417 400.333 689.01 401 688.197 401.4C687.397 401.813 686.243 402.02 684.737 402.02ZM684.897 394.16C685.763 394.16 686.363 394.013 686.697 393.72C687.043 393.427 687.217 392.927 687.217 392.22C687.217 391.513 687.043 391 686.697 390.68C686.363 390.36 685.763 390.2 684.897 390.2C684.083 390.2 683.49 390.353 683.117 390.66C682.743 390.967 682.557 391.487 682.557 392.22C682.557 392.9 682.73 393.393 683.077 393.7C683.437 394.007 684.043 394.16 684.897 394.16Z" fill="#616264"/>
<path d="M712.46 398.5L713.54 395.06H711.86V393.6H714L714.96 390.54H712.78V389.06H715.42L716.5 385.62H718.38L717.3 389.06H720.68L721.76 385.62H723.66L722.58 389.06H724.18V390.54H722.1L721.14 393.6H723.26V395.06H720.68L719.6 398.5H717.72L718.8 395.06H715.4L714.32 398.5H712.46ZM715.86 393.6H719.26L720.22 390.54H716.82L715.86 393.6ZM726.303 398.5V389.02H728.303L728.403 390.02C728.87 389.647 729.383 389.353 729.943 389.14C730.503 388.927 731.103 388.82 731.743 388.82C732.423 388.82 732.95 388.933 733.323 389.16C733.71 389.373 734.003 389.673 734.203 390.06C734.643 389.7 735.15 389.407 735.723 389.18C736.296 388.94 736.983 388.82 737.783 388.82C738.876 388.82 739.683 389.1 740.203 389.66C740.723 390.22 740.983 391.08 740.983 392.24V398.5H738.843V392.46C738.843 391.727 738.69 391.213 738.383 390.92C738.076 390.627 737.576 390.48 736.883 390.48C736.43 390.48 735.996 390.56 735.583 390.72C735.183 390.88 734.836 391.12 734.543 391.44C734.583 391.587 734.61 391.74 734.623 391.9C734.636 392.06 734.643 392.233 734.643 392.42V398.5H732.623V392.48C732.623 391.787 732.503 391.28 732.263 390.96C732.023 390.64 731.57 390.48 730.903 390.48C730.436 390.48 729.99 390.593 729.563 390.82C729.15 391.033 728.776 391.293 728.443 391.6V398.5H726.303ZM746.099 398.7C745.499 398.7 744.939 398.593 744.419 398.38C743.912 398.167 743.506 397.847 743.199 397.42C742.892 396.98 742.739 396.44 742.739 395.8C742.739 394.893 743.046 394.167 743.659 393.62C744.286 393.06 745.246 392.78 746.539 392.78H749.579V392.36C749.579 391.907 749.506 391.547 749.359 391.28C749.226 391.013 748.972 390.82 748.599 390.7C748.239 390.58 747.706 390.52 746.999 390.52C745.879 390.52 744.832 390.687 743.859 391.02V389.4C744.286 389.227 744.806 389.087 745.419 388.98C746.032 388.873 746.692 388.82 747.399 388.82C748.786 388.82 749.839 389.1 750.559 389.66C751.292 390.22 751.659 391.133 751.659 392.4V398.5H749.799L749.659 397.54C749.272 397.913 748.792 398.2 748.219 398.4C747.659 398.6 746.952 398.7 746.099 398.7ZM746.679 397.14C747.332 397.14 747.899 397.033 748.379 396.82C748.872 396.593 749.272 396.293 749.579 395.92V394.26H746.579C745.939 394.26 745.472 394.387 745.179 394.64C744.899 394.88 744.759 395.253 744.759 395.76C744.759 396.253 744.926 396.607 745.259 396.82C745.592 397.033 746.066 397.14 746.679 397.14ZM754.076 398.5V389.02H756.076L756.176 390.02C756.603 389.687 757.11 389.407 757.696 389.18C758.296 388.94 758.956 388.82 759.676 388.82C760.903 388.82 761.796 389.107 762.356 389.68C762.916 390.253 763.196 391.147 763.196 392.36V398.5H761.036V392.46C761.036 391.727 760.883 391.213 760.576 390.92C760.283 390.627 759.723 390.48 758.896 390.48C758.403 390.48 757.916 390.58 757.436 390.78C756.97 390.98 756.576 391.24 756.256 391.56V398.5H754.076ZM769.059 398.7C767.926 398.7 767.052 398.387 766.439 397.76C765.839 397.133 765.539 396.213 765.539 395V389.02H767.719V395C767.719 395.707 767.892 396.227 768.239 396.56C768.586 396.893 769.119 397.06 769.839 397.06C770.372 397.06 770.866 396.96 771.319 396.76C771.772 396.56 772.166 396.293 772.499 395.96V389.02H774.659V398.5H772.679L772.579 397.52C772.152 397.853 771.646 398.133 771.059 398.36C770.472 398.587 769.806 398.7 769.059 398.7ZM779.868 398.7C779.268 398.7 778.708 398.593 778.188 398.38C777.682 398.167 777.275 397.847 776.968 397.42C776.662 396.98 776.508 396.44 776.508 395.8C776.508 394.893 776.815 394.167 777.428 393.62C778.055 393.06 779.015 392.78 780.308 392.78H783.348V392.36C783.348 391.907 783.275 391.547 783.128 391.28C782.995 391.013 782.742 390.82 782.368 390.7C782.008 390.58 781.475 390.52 780.768 390.52C779.648 390.52 778.602 390.687 777.628 391.02V389.4C778.055 389.227 778.575 389.087 779.188 388.98C779.802 388.873 780.462 388.82 781.168 388.82C782.555 388.82 783.608 389.1 784.328 389.66C785.062 390.22 785.428 391.133 785.428 392.4V398.5H783.568L783.428 397.54C783.042 397.913 782.562 398.2 781.988 398.4C781.428 398.6 780.722 398.7 779.868 398.7ZM780.448 397.14C781.102 397.14 781.668 397.033 782.148 396.82C782.642 396.593 783.042 396.293 783.348 395.92V394.26H780.348C779.708 394.26 779.242 394.387 778.948 394.64C778.668 394.88 778.528 395.253 778.528 395.76C778.528 396.253 778.695 396.607 779.028 396.82C779.362 397.033 779.835 397.14 780.448 397.14ZM790.206 398.7C789.433 398.7 788.846 398.513 788.446 398.14C788.046 397.753 787.846 397.12 787.846 396.24V385.02H790.026V396.04C790.026 396.413 790.093 396.667 790.226 396.8C790.359 396.933 790.559 397 790.826 397C791.146 397 791.453 396.96 791.746 396.88V398.46C791.493 398.553 791.246 398.613 791.006 398.64C790.779 398.68 790.513 398.7 790.206 398.7ZM793.051 400.04V398.5H802.131V400.04H793.051ZM807.892 398.7C806.878 398.7 806.118 398.433 805.612 397.9C805.118 397.353 804.872 396.613 804.872 395.68V390.72H803.472V389.02H804.872V386.84L807.032 386.18V389.02H809.552L809.412 390.72H807.032V395.56C807.032 396.107 807.158 396.493 807.412 396.72C807.665 396.933 808.078 397.04 808.652 397.04C809.012 397.04 809.392 396.973 809.792 396.84V398.38C809.272 398.593 808.638 398.7 807.892 398.7ZM816.259 398.7C814.606 398.7 813.326 398.293 812.419 397.48C811.513 396.667 811.059 395.42 811.059 393.74C811.059 392.22 811.446 391.02 812.219 390.14C812.993 389.26 814.166 388.82 815.739 388.82C817.179 388.82 818.259 389.2 818.979 389.96C819.713 390.707 820.079 391.673 820.079 392.86V394.62H813.139C813.246 395.54 813.579 396.173 814.139 396.52C814.699 396.867 815.553 397.04 816.699 397.04C817.179 397.04 817.673 396.993 818.179 396.9C818.686 396.807 819.126 396.687 819.499 396.54V398.14C819.073 398.327 818.579 398.467 818.019 398.56C817.473 398.653 816.886 398.7 816.259 398.7ZM813.139 393.2H818.159V392.54C818.159 391.887 817.979 391.38 817.619 391.02C817.259 390.647 816.653 390.46 815.799 390.46C814.786 390.46 814.086 390.68 813.699 391.12C813.326 391.56 813.139 392.253 813.139 393.2ZM825.264 398.7C824.61 398.7 823.984 398.653 823.384 398.56C822.797 398.467 822.31 398.353 821.924 398.22V396.38C822.377 396.553 822.877 396.687 823.424 396.78C823.97 396.873 824.49 396.92 824.984 396.92C825.73 396.92 826.264 396.853 826.584 396.72C826.904 396.587 827.064 396.327 827.064 395.94C827.064 395.66 826.964 395.44 826.764 395.28C826.577 395.12 826.29 394.973 825.904 394.84C825.53 394.707 825.05 394.547 824.464 394.36C823.904 394.173 823.417 393.973 823.004 393.76C822.59 393.533 822.27 393.247 822.044 392.9C821.817 392.553 821.704 392.1 821.704 391.54C821.704 390.673 822.017 390.007 822.644 389.54C823.27 389.06 824.277 388.82 825.664 388.82C826.21 388.82 826.73 388.86 827.224 388.94C827.717 389.02 828.137 389.12 828.484 389.24V391.06C828.11 390.913 827.697 390.8 827.244 390.72C826.804 390.64 826.39 390.6 826.004 390.6C825.31 390.6 824.784 390.66 824.424 390.78C824.077 390.9 823.904 391.14 823.904 391.5C823.904 391.873 824.084 392.14 824.444 392.3C824.817 392.447 825.41 392.653 826.224 392.92C826.97 393.147 827.564 393.387 828.004 393.64C828.444 393.893 828.757 394.2 828.944 394.56C829.144 394.907 829.244 395.36 829.244 395.92C829.244 396.853 828.904 397.553 828.224 398.02C827.544 398.473 826.557 398.7 825.264 398.7ZM834.708 398.7C833.695 398.7 832.935 398.433 832.428 397.9C831.935 397.353 831.688 396.613 831.688 395.68V390.72H830.288V389.02H831.688V386.84L833.848 386.18V389.02H836.368L836.228 390.72H833.848V395.56C833.848 396.107 833.975 396.493 834.228 396.72C834.481 396.933 834.895 397.04 835.468 397.04C835.828 397.04 836.208 396.973 836.608 396.84V398.38C836.088 398.593 835.455 398.7 834.708 398.7ZM839.076 387.04V385.24H841.456V387.04H839.076ZM839.256 398.5V390.68H837.816L838.016 389.02H841.436V398.5H839.256ZM843.979 398.5V389.02H845.979L846.079 390.02C846.505 389.687 847.012 389.407 847.599 389.18C848.199 388.94 848.859 388.82 849.579 388.82C850.805 388.82 851.699 389.107 852.259 389.68C852.819 390.253 853.099 391.147 853.099 392.36V398.5H850.939V392.46C850.939 391.727 850.785 391.213 850.479 390.92C850.185 390.627 849.625 390.48 848.799 390.48C848.305 390.48 847.819 390.58 847.339 390.78C846.872 390.98 846.479 391.24 846.159 391.56V398.5H843.979ZM859.381 402.02C858.675 402.02 857.968 401.973 857.261 401.88C856.555 401.8 855.955 401.673 855.461 401.5V399.82C855.995 399.993 856.608 400.127 857.301 400.22C857.995 400.313 858.655 400.36 859.281 400.36C860.241 400.36 860.941 400.307 861.381 400.2C861.821 400.093 862.041 399.853 862.041 399.48C862.041 399.2 861.935 399 861.721 398.88C861.508 398.773 861.101 398.72 860.501 398.72H857.941C856.221 398.72 855.361 398.113 855.361 396.9C855.361 396.513 855.475 396.153 855.701 395.82C855.928 395.487 856.288 395.233 856.781 395.06C856.235 394.793 855.828 394.427 855.561 393.96C855.308 393.493 855.181 392.933 855.181 392.28C855.181 391.067 855.541 390.187 856.261 389.64C856.995 389.093 858.088 388.82 859.541 388.82C859.848 388.82 860.168 388.847 860.501 388.9C860.835 388.94 861.095 388.98 861.281 389.02H864.761L864.701 390.44H863.101C863.355 390.653 863.541 390.92 863.661 391.24C863.781 391.56 863.841 391.907 863.841 392.28C863.841 393.293 863.535 394.093 862.921 394.68C862.308 395.253 861.381 395.54 860.141 395.54C859.928 395.54 859.728 395.533 859.541 395.52C859.368 395.493 859.175 395.467 858.961 395.44C858.561 395.48 858.201 395.587 857.881 395.76C857.561 395.933 857.401 396.167 857.401 396.46C857.401 396.66 857.481 396.807 857.641 396.9C857.801 396.98 858.068 397.02 858.441 397.02H861.101C862.048 397.02 862.775 397.227 863.281 397.64C863.801 398.04 864.061 398.627 864.061 399.4C864.061 400.333 863.655 401 862.841 401.4C862.041 401.813 860.888 402.02 859.381 402.02ZM859.541 394.16C860.408 394.16 861.008 394.013 861.341 393.72C861.688 393.427 861.861 392.927 861.861 392.22C861.861 391.513 861.688 391 861.341 390.68C861.008 390.36 860.408 390.2 859.541 390.2C858.728 390.2 858.135 390.353 857.761 390.66C857.388 390.967 857.201 391.487 857.201 392.22C857.201 392.9 857.375 393.393 857.721 393.7C858.081 394.007 858.688 394.16 859.541 394.16Z" fill="#616264"/>
</g>
<defs>
<filter id="filter0_dddd_2_21" x="367" y="197" width="546" height="246" filterUnits="userSpaceOnUse" color-interpolation-filters="sRGB">
<feFlood flood-opacity="0" result="BackgroundImageFix"/>
<feColorMatrix in="SourceAlpha" type="matrix" values="0 0 0 0 0 0 0 0 0 0 0 0 0 0 0 0 0 0 127 0" result="hardAlpha"/>
<feOffset dx="4"/>
<feGaussianBlur stdDeviation="2"/>
<feComposite in2="hardAlpha" operator="out"/>
<feColorMatrix type="matrix" values="0 0 0 0 0.145098 0 0 0 0 0.14902 0 0 0 0 0.156863 0 0 0 0.5 0"/>
<feBlend mode="normal" in2="BackgroundImageFix" result="effect1_dropShadow_2_21"/>
<feColorMatrix in="SourceAlpha" type="matrix" values="0 0 0 0 0 0 0 0 0 0 0 0 0 0 0 0 0 0 127 0" result="hardAlpha"/>
<feOffset dy="4"/>
<feGaussianBlur stdDeviation="2"/>
<feComposite in2="hardAlpha" operator="out"/>
<feColorMatrix type="matrix" values="0 0 0 0 0.145098 0 0 0 0 0.14902 0 0 0 0 0.156863 0 0 0 0.5 0"/>
<feBlend mode="normal" in2="effect1_dropShadow_2_21" result="effect2_dropShadow_2_21"/>
<feColorMatrix in="SourceAlpha" type="matrix" values="0 0 0 0 0 0 0 0 0 0 0 0 0 0 0 0 0 0 127 0" result="hardAlpha"/>
<feOffset dy="-4"/>
<feGaussianBlur stdDeviation="2"/>
<feComposite in2="hardAlpha" operator="out"/>
<feColorMatrix type="matrix" values="0 0 0 0 0.145098 0 0 0 0 0.14902 0 0 0 0 0.156863 0 0 0 0.5 0"/>
<feBlend mode="normal" in2="effect2_dropShadow_2_21" result="effect3_dropShadow_2_21"/>
<feColorMatrix in="SourceAlpha" type="matrix" values="0 0 0 0 0 0 0 0 0 0 0 0 0 0 0 0 0 0 127 0" result="hardAlpha"/>
<feOffset dx="-4"/>
<feGaussianBlur stdDeviation="2"/>
<feComposite in2="hardAlpha" operator="out"/>
<feColorMatrix type="matrix" values="0 0 0 0 0.145098 0 0 0 0 0.14902 0 0 0 0 0.156863 0 0 0 0.5 0"/>
<feBlend mode="normal" in2="effect3_dropShadow_2_21" result="effect4_dropShadow_2_21"/>
<feBlend mode="normal" in="SourceGraphic" in2="effect4_dropShadow_2_21" result="shape"/>
</filter>
</defs>
</svg>
