<svg width="1280" height="435" viewBox="0 0 1280 435" fill="none" xmlns="http://www.w3.org/2000/svg">
<rect width="1280" height="435" fill="#2F3032"/>
<g filter="url(#filter0_dddd_2_21)">
<rect width="904" height="230" transform="translate(188 103)" fill="#2F3032"/>
<path d="M407.64 199L422.4 160.36H429.72L444.36 199H437.64L433.8 189.04H418.26L414.42 199H407.64ZM419.28 184H432.72L426 166.3L419.28 184ZM454.825 199.6C452.505 199.6 450.745 199.04 449.545 197.92C448.345 196.76 447.745 194.86 447.745 192.22V158.56H454.285V191.62C454.285 192.74 454.485 193.5 454.885 193.9C455.285 194.3 455.885 194.5 456.685 194.5C457.645 194.5 458.565 194.38 459.445 194.14V198.88C458.685 199.16 457.945 199.34 457.225 199.42C456.545 199.54 455.745 199.6 454.825 199.6ZM464.852 164.62V159.22H471.992V164.62H464.852ZM465.392 199V175.54H461.072L461.672 170.56H471.932V199H465.392ZM479.561 199V170.56H485.561L485.861 173.56C487.141 172.56 488.661 171.72 490.421 171.04C492.221 170.32 494.201 169.96 496.361 169.96C500.041 169.96 502.721 170.82 504.401 172.54C506.081 174.26 506.921 176.94 506.921 180.58V199H500.441V180.88C500.441 178.68 499.981 177.14 499.061 176.26C498.181 175.38 496.501 174.94 494.021 174.94C492.541 174.94 491.081 175.24 489.641 175.84C488.241 176.44 487.061 177.22 486.101 178.18V199H479.561ZM522.25 199.6C520.45 199.6 518.77 199.28 517.21 198.64C515.69 198 514.47 197.04 513.55 195.76C512.63 194.44 512.17 192.82 512.17 190.9C512.17 188.18 513.09 186 514.93 184.36C516.81 182.68 519.69 181.84 523.57 181.84H532.69V180.58C532.69 179.22 532.47 178.14 532.03 177.34C531.63 176.54 530.87 175.96 529.75 175.6C528.67 175.24 527.07 175.06 524.95 175.06C521.59 175.06 518.45 175.56 515.53 176.56V171.7C516.81 171.18 518.37 170.76 520.21 170.44C522.05 170.12 524.03 169.96 526.15 169.96C530.31 169.96 533.47 170.8 535.63 172.48C537.83 174.16 538.93 176.9 538.93 180.7V199H533.35L532.93 196.12C531.77 197.24 530.33 198.1 528.61 198.7C526.93 199.3 524.81 199.6 522.25 199.6ZM523.99 194.92C525.95 194.92 527.65 194.6 529.09 193.96C530.57 193.28 531.77 192.38 532.69 191.26V186.28H523.69C521.77 186.28 520.37 186.66 519.49 187.42C518.65 188.14 518.23 189.26 518.23 190.78C518.23 192.26 518.73 193.32 519.73 193.96C520.73 194.6 522.15 194.92 523.99 194.92ZM560.01 199V160.36H578.73C582.57 160.36 585.41 161.26 587.25 163.06C589.09 164.86 590.01 167.4 590.01 170.68C590.01 172.76 589.59 174.52 588.75 175.96C587.91 177.36 586.79 178.42 585.39 179.14C587.27 179.66 588.75 180.6 589.83 181.96C590.95 183.28 591.51 185.24 591.51 187.84C591.51 191.6 590.49 194.4 588.45 196.24C586.45 198.08 583.49 199 579.57 199H560.01ZM566.55 176.86H577.83C580.03 176.86 581.59 176.36 582.51 175.36C583.47 174.32 583.95 172.94 583.95 171.22C583.95 169.22 583.47 167.74 582.51 166.78C581.55 165.78 579.75 165.28 577.11 165.28H566.55V176.86ZM566.55 194.2H578.19C580.51 194.2 582.21 193.72 583.29 192.76C584.37 191.76 584.91 190.04 584.91 187.6C584.91 185.6 584.37 184.12 583.29 183.16C582.25 182.16 580.33 181.66 577.53 181.66H566.55V194.2ZM611.482 199.6C606.362 199.6 602.602 198.32 600.202 195.76C597.842 193.2 596.662 189.54 596.662 184.78C596.662 180.02 597.862 176.36 600.262 173.8C602.662 171.24 606.402 169.96 611.482 169.96C616.602 169.96 620.362 171.24 622.762 173.8C625.162 176.36 626.362 180.02 626.362 184.78C626.362 189.54 625.162 193.2 622.762 195.76C620.402 198.32 616.642 199.6 611.482 199.6ZM611.482 194.08C614.482 194.08 616.602 193.36 617.842 191.92C619.122 190.44 619.762 188.06 619.762 184.78C619.762 181.5 619.122 179.14 617.842 177.7C616.602 176.26 614.482 175.54 611.482 175.54C608.522 175.54 606.402 176.26 605.122 177.7C603.882 179.14 603.262 181.5 603.262 184.78C603.262 188.06 603.882 190.44 605.122 191.92C606.402 193.36 608.522 194.08 611.482 194.08ZM644.245 209.56C642.125 209.56 640.005 209.42 637.885 209.14C635.765 208.9 633.965 208.52 632.485 208V202.96C634.085 203.48 635.925 203.88 638.005 204.16C640.085 204.44 642.065 204.58 643.945 204.58C646.825 204.58 648.925 204.42 650.245 204.1C651.565 203.78 652.225 203.06 652.225 201.94C652.225 201.1 651.905 200.5 651.265 200.14C650.625 199.82 649.405 199.66 647.605 199.66H639.925C634.765 199.66 632.185 197.84 632.185 194.2C632.185 193.04 632.525 191.96 633.205 190.96C633.885 189.96 634.965 189.2 636.445 188.68C634.805 187.88 633.585 186.78 632.785 185.38C632.025 183.98 631.645 182.3 631.645 180.34C631.645 176.7 632.725 174.06 634.885 172.42C637.085 170.78 640.365 169.96 644.725 169.96C645.645 169.96 646.605 170.04 647.605 170.2C648.605 170.32 649.385 170.44 649.945 170.56H660.385L660.205 174.82H655.405C656.165 175.46 656.725 176.26 657.085 177.22C657.445 178.18 657.625 179.22 657.625 180.34C657.625 183.38 656.705 185.78 654.865 187.54C653.025 189.26 650.245 190.12 646.525 190.12C645.885 190.12 645.285 190.1 644.725 190.06C644.205 189.98 643.625 189.9 642.985 189.82C641.785 189.94 640.705 190.26 639.745 190.78C638.785 191.3 638.305 192 638.305 192.88C638.305 193.48 638.545 193.92 639.025 194.2C639.505 194.44 640.305 194.56 641.425 194.56H649.405C652.245 194.56 654.425 195.18 655.945 196.42C657.505 197.62 658.285 199.38 658.285 201.7C658.285 204.5 657.065 206.5 654.625 207.7C652.225 208.94 648.765 209.56 644.245 209.56ZM644.725 185.98C647.325 185.98 649.125 185.54 650.125 184.66C651.165 183.78 651.685 182.28 651.685 180.16C651.685 178.04 651.165 176.5 650.125 175.54C649.125 174.58 647.325 174.1 644.725 174.1C642.285 174.1 640.505 174.56 639.385 175.48C638.265 176.4 637.705 177.96 637.705 180.16C637.705 182.2 638.225 183.68 639.265 184.6C640.345 185.52 642.165 185.98 644.725 185.98ZM677.122 199.6C674.562 199.6 672.302 199.16 670.342 198.28C668.382 197.4 666.862 195.94 665.782 193.9C664.702 191.86 664.162 189.12 664.162 185.68C664.162 182.28 664.742 179.42 665.902 177.1C667.062 174.74 668.662 172.96 670.702 171.76C672.782 170.56 675.122 169.96 677.722 169.96C679.442 169.96 680.962 170.16 682.282 170.56C683.642 170.96 684.942 171.58 686.182 172.42V158.56H692.722V199H687.142L686.722 196.18C685.442 197.34 684.042 198.2 682.522 198.76C681.002 199.32 679.202 199.6 677.122 199.6ZM678.862 194.68C681.782 194.68 684.222 193.68 686.182 191.68V177.46C684.302 175.78 681.942 174.94 679.102 174.94C676.342 174.94 674.262 175.86 672.862 177.7C671.462 179.54 670.762 182.22 670.762 185.74C670.762 189.14 671.402 191.48 672.682 192.76C674.002 194.04 676.062 194.68 678.862 194.68ZM708.871 199.6C707.071 199.6 705.391 199.28 703.831 198.64C702.311 198 701.091 197.04 700.171 195.76C699.251 194.44 698.791 192.82 698.791 190.9C698.791 188.18 699.711 186 701.551 184.36C703.431 182.68 706.311 181.84 710.191 181.84H719.311V180.58C719.311 179.22 719.091 178.14 718.651 177.34C718.251 176.54 717.491 175.96 716.371 175.6C715.291 175.24 713.691 175.06 711.571 175.06C708.211 175.06 705.071 175.56 702.151 176.56V171.7C703.431 171.18 704.991 170.76 706.831 170.44C708.671 170.12 710.651 169.96 712.771 169.96C716.931 169.96 720.091 170.8 722.251 172.48C724.451 174.16 725.551 176.9 725.551 180.7V199H719.971L719.551 196.12C718.391 197.24 716.951 198.1 715.231 198.7C713.551 199.3 711.431 199.6 708.871 199.6ZM710.611 194.92C712.571 194.92 714.271 194.6 715.711 193.96C717.191 193.28 718.391 192.38 719.311 191.26V186.28H710.311C708.391 186.28 706.991 186.66 706.111 187.42C705.271 188.14 704.851 189.26 704.851 190.78C704.851 192.26 705.351 193.32 706.351 193.96C707.351 194.6 708.771 194.92 710.611 194.92ZM732.803 199V170.56H738.803L739.103 173.56C740.383 172.56 741.903 171.72 743.663 171.04C745.463 170.32 747.443 169.96 749.603 169.96C753.283 169.96 755.963 170.82 757.643 172.54C759.323 174.26 760.163 176.94 760.163 180.58V199H753.683V180.88C753.683 178.68 753.223 177.14 752.303 176.26C751.423 175.38 749.743 174.94 747.263 174.94C745.783 174.94 744.323 175.24 742.883 175.84C741.483 176.44 740.303 177.22 739.343 178.18V199H732.803ZM780.525 199.6C775.405 199.6 771.645 198.32 769.245 195.76C766.885 193.2 765.705 189.54 765.705 184.78C765.705 180.02 766.905 176.36 769.305 173.8C771.705 171.24 775.445 169.96 780.525 169.96C785.645 169.96 789.405 171.24 791.805 173.8C794.205 176.36 795.405 180.02 795.405 184.78C795.405 189.54 794.205 193.2 791.805 195.76C789.445 198.32 785.685 199.6 780.525 199.6ZM780.525 194.08C783.525 194.08 785.645 193.36 786.885 191.92C788.165 190.44 788.805 188.06 788.805 184.78C788.805 181.5 788.165 179.14 786.885 177.7C785.645 176.26 783.525 175.54 780.525 175.54C777.565 175.54 775.445 176.26 774.165 177.7C772.925 179.14 772.305 181.5 772.305 184.78C772.305 188.06 772.925 190.44 774.165 191.92C775.445 193.36 777.565 194.08 780.525 194.08ZM808.507 199L797.287 170.56H804.067L812.047 192.64L820.027 170.56H826.747L815.587 199H808.507ZM839.359 199.6C837.559 199.6 835.879 199.28 834.319 198.64C832.799 198 831.579 197.04 830.659 195.76C829.739 194.44 829.279 192.82 829.279 190.9C829.279 188.18 830.199 186 832.039 184.36C833.919 182.68 836.799 181.84 840.679 181.84H849.799V180.58C849.799 179.22 849.579 178.14 849.139 177.34C848.739 176.54 847.979 175.96 846.859 175.6C845.779 175.24 844.179 175.06 842.059 175.06C838.699 175.06 835.559 175.56 832.639 176.56V171.7C833.919 171.18 835.479 170.76 837.319 170.44C839.159 170.12 841.139 169.96 843.259 169.96C847.419 169.96 850.579 170.8 852.739 172.48C854.939 174.16 856.039 176.9 856.039 180.7V199H850.459L850.039 196.12C848.879 197.24 847.439 198.1 845.719 198.7C844.039 199.3 841.919 199.6 839.359 199.6ZM841.099 194.92C843.059 194.92 844.759 194.6 846.199 193.96C847.679 193.28 848.879 192.38 849.799 191.26V186.28H840.799C838.879 186.28 837.479 186.66 836.599 187.42C835.759 188.14 835.339 189.26 835.339 190.78C835.339 192.26 835.839 193.32 836.839 193.96C837.839 194.6 839.259 194.92 841.099 194.92Z" fill="white"/>
<path d="M246.46 296.5L247.54 293.06H245.86V291.6H248L248.96 288.54H246.78V287.06H249.42L250.5 283.62H252.38L251.3 287.06H254.68L255.76 283.62H257.66L256.58 287.06H258.18V288.54H256.1L255.14 291.6H257.26V293.06H254.68L253.6 296.5H251.72L252.8 293.06H249.4L248.32 296.5H246.46ZM249.86 291.6H253.26L254.22 288.54H250.82L249.86 291.6ZM261.563 285.04V283.24H263.943V285.04H261.563ZM260.863 301.18C260.09 301.18 259.43 301.073 258.883 300.86V299.28C259.11 299.347 259.323 299.393 259.523 299.42C259.736 299.46 259.93 299.48 260.103 299.48C260.73 299.48 261.163 299.367 261.403 299.14C261.656 298.913 261.783 298.54 261.783 298.02V288.68H260.343L260.543 287.02H263.943V298.22C263.943 299.113 263.683 299.827 263.163 300.36C262.656 300.907 261.89 301.18 260.863 301.18ZM269.875 296.7C268.742 296.7 267.869 296.387 267.255 295.76C266.655 295.133 266.355 294.213 266.355 293V287.02H268.535V293C268.535 293.707 268.709 294.227 269.055 294.56C269.402 294.893 269.935 295.06 270.655 295.06C271.189 295.06 271.682 294.96 272.135 294.76C272.589 294.56 272.982 294.293 273.315 293.96V287.02H275.475V296.5H273.495L273.395 295.52C272.969 295.853 272.462 296.133 271.875 296.36C271.289 296.587 270.622 296.7 269.875 296.7ZM278.018 296.5V287.02H280.018L280.118 288.02C280.544 287.687 281.051 287.407 281.638 287.18C282.238 286.94 282.898 286.82 283.618 286.82C284.844 286.82 285.738 287.107 286.298 287.68C286.858 288.253 287.138 289.147 287.138 290.36V296.5H284.978V290.46C284.978 289.727 284.824 289.213 284.518 288.92C284.224 288.627 283.664 288.48 282.838 288.48C282.344 288.48 281.858 288.58 281.378 288.78C280.911 288.98 280.518 289.24 280.198 289.56V296.5H278.018ZM290.38 285.04V283.24H292.76V285.04H290.38ZM290.56 296.5V288.68H289.12L289.32 287.02H292.74V296.5H290.56ZM299.823 296.7C298.117 296.7 296.863 296.273 296.063 295.42C295.277 294.567 294.883 293.347 294.883 291.76C294.883 290.173 295.283 288.953 296.083 288.1C296.883 287.247 298.13 286.82 299.823 286.82C301.53 286.82 302.783 287.247 303.583 288.1C304.383 288.953 304.783 290.173 304.783 291.76C304.783 293.347 304.383 294.567 303.583 295.42C302.797 296.273 301.543 296.7 299.823 296.7ZM299.823 294.86C300.823 294.86 301.53 294.62 301.943 294.14C302.37 293.647 302.583 292.853 302.583 291.76C302.583 290.667 302.37 289.88 301.943 289.4C301.53 288.92 300.823 288.68 299.823 288.68C298.837 288.68 298.13 288.92 297.703 289.4C297.29 289.88 297.083 290.667 297.083 291.76C297.083 292.853 297.29 293.647 297.703 294.14C298.13 294.62 298.837 294.86 299.823 294.86ZM306.905 296.5V287.02H308.905L309.025 288.12C309.478 287.827 310.018 287.56 310.645 287.32C311.271 287.08 311.891 286.913 312.505 286.82V288.48C312.131 288.547 311.725 288.647 311.285 288.78C310.858 288.9 310.451 289.04 310.065 289.2C309.678 289.347 309.351 289.5 309.085 289.66V296.5H306.905ZM313.692 298.04V296.5H322.772V298.04H313.692ZM334.392 301.34C333.552 301.34 332.919 301.127 332.492 300.7C332.066 300.273 331.852 299.607 331.852 298.7V295.9C331.039 296.433 330.059 296.7 328.912 296.7C327.552 296.7 326.479 296.333 325.692 295.6C324.906 294.853 324.512 293.627 324.512 291.92C324.512 290.213 324.899 288.94 325.672 288.1C326.459 287.247 327.519 286.82 328.852 286.82C329.546 286.82 330.139 286.913 330.632 287.1C331.139 287.287 331.606 287.573 332.032 287.96L332.172 287.02H334.032V298.54C334.032 298.953 334.099 299.24 334.232 299.4C334.379 299.56 334.652 299.64 335.052 299.64C335.186 299.64 335.326 299.627 335.472 299.6C335.632 299.573 335.772 299.547 335.892 299.52V301.1C335.666 301.18 335.439 301.24 335.212 301.28C334.986 301.32 334.712 301.34 334.392 301.34ZM329.472 295.06C329.992 295.06 330.446 294.987 330.832 294.84C331.219 294.68 331.559 294.473 331.852 294.22V289.48C331.199 288.813 330.392 288.48 329.432 288.48C328.459 288.48 327.759 288.773 327.332 289.36C326.919 289.933 326.712 290.78 326.712 291.9C326.712 293.073 326.939 293.893 327.392 294.36C327.846 294.827 328.539 295.06 329.472 295.06ZM339.513 296.7C338.913 296.7 338.353 296.593 337.833 296.38C337.326 296.167 336.92 295.847 336.613 295.42C336.306 294.98 336.153 294.44 336.153 293.8C336.153 292.893 336.46 292.167 337.073 291.62C337.7 291.06 338.66 290.78 339.953 290.78H342.993V290.36C342.993 289.907 342.92 289.547 342.773 289.28C342.64 289.013 342.386 288.82 342.013 288.7C341.653 288.58 341.12 288.52 340.413 288.52C339.293 288.52 338.246 288.687 337.273 289.02V287.4C337.7 287.227 338.22 287.087 338.833 286.98C339.446 286.873 340.106 286.82 340.813 286.82C342.2 286.82 343.253 287.1 343.973 287.66C344.706 288.22 345.073 289.133 345.073 290.4V296.5H343.213L343.073 295.54C342.686 295.913 342.206 296.2 341.633 296.4C341.073 296.6 340.366 296.7 339.513 296.7ZM340.093 295.14C340.746 295.14 341.313 295.033 341.793 294.82C342.286 294.593 342.686 294.293 342.993 293.92V292.26H339.993C339.353 292.26 338.886 292.387 338.593 292.64C338.313 292.88 338.173 293.253 338.173 293.76C338.173 294.253 338.34 294.607 338.673 294.82C339.006 295.033 339.48 295.14 340.093 295.14Z" fill="#FF9858" fill-opacity="0.71"/>
<path d="M368.46 296.5L369.54 293.06H367.86V291.6H370L370.96 288.54H368.78V287.06H371.42L372.5 283.62H374.38L373.3 287.06H376.68L377.76 283.62H379.66L378.58 287.06H380.18V288.54H378.1L377.14 291.6H379.26V293.06H376.68L375.6 296.5H373.72L374.8 293.06H371.4L370.32 296.5H368.46ZM371.86 291.6H375.26L376.22 288.54H372.82L371.86 291.6ZM385.463 296.7C384.81 296.7 384.183 296.653 383.583 296.56C382.996 296.467 382.51 296.353 382.123 296.22V294.38C382.576 294.553 383.076 294.687 383.623 294.78C384.17 294.873 384.69 294.92 385.183 294.92C385.93 294.92 386.463 294.853 386.783 294.72C387.103 294.587 387.263 294.327 387.263 293.94C387.263 293.66 387.163 293.44 386.963 293.28C386.776 293.12 386.49 292.973 386.103 292.84C385.73 292.707 385.25 292.547 384.663 292.36C384.103 292.173 383.616 291.973 383.203 291.76C382.79 291.533 382.47 291.247 382.243 290.9C382.016 290.553 381.903 290.1 381.903 289.54C381.903 288.673 382.216 288.007 382.843 287.54C383.47 287.06 384.476 286.82 385.863 286.82C386.41 286.82 386.93 286.86 387.423 286.94C387.916 287.02 388.336 287.12 388.683 287.24V289.06C388.31 288.913 387.896 288.8 387.443 288.72C387.003 288.64 386.59 288.6 386.203 288.6C385.51 288.6 384.983 288.66 384.623 288.78C384.276 288.9 384.103 289.14 384.103 289.5C384.103 289.873 384.283 290.14 384.643 290.3C385.016 290.447 385.61 290.653 386.423 290.92C387.17 291.147 387.763 291.387 388.203 291.64C388.643 291.893 388.956 292.2 389.143 292.56C389.343 292.907 389.443 293.36 389.443 293.92C389.443 294.853 389.103 295.553 388.423 296.02C387.743 296.473 386.756 296.7 385.463 296.7ZM395.827 296.7C394.121 296.7 392.867 296.273 392.067 295.42C391.281 294.567 390.887 293.347 390.887 291.76C390.887 290.173 391.287 288.953 392.087 288.1C392.887 287.247 394.134 286.82 395.827 286.82C397.534 286.82 398.787 287.247 399.587 288.1C400.387 288.953 400.787 290.173 400.787 291.76C400.787 293.347 400.387 294.567 399.587 295.42C398.801 296.273 397.547 296.7 395.827 296.7ZM395.827 294.86C396.827 294.86 397.534 294.62 397.947 294.14C398.374 293.647 398.587 292.853 398.587 291.76C398.587 290.667 398.374 289.88 397.947 289.4C397.534 288.92 396.827 288.68 395.827 288.68C394.841 288.68 394.134 288.92 393.707 289.4C393.294 289.88 393.087 290.667 393.087 291.76C393.087 292.853 393.294 293.647 393.707 294.14C394.134 294.62 394.841 294.86 395.827 294.86ZM403.488 296.5V288.72H402.108V287.02H403.488V285.86C403.488 284.913 403.748 284.153 404.268 283.58C404.802 282.993 405.588 282.7 406.628 282.7C407.015 282.7 407.368 282.733 407.688 282.8C408.008 282.853 408.302 282.933 408.568 283.04V284.6C408.155 284.453 407.735 284.38 407.308 284.38C406.682 284.38 406.248 284.493 406.008 284.72C405.768 284.947 405.648 285.333 405.648 285.88V287.02H408.128L408.028 288.72H405.648V296.5H403.488ZM413.13 296.7C412.117 296.7 411.357 296.433 410.85 295.9C410.357 295.353 410.11 294.613 410.11 293.68V288.72H408.71V287.02H410.11V284.84L412.27 284.18V287.02H414.79L414.65 288.72H412.27V293.56C412.27 294.107 412.397 294.493 412.65 294.72C412.903 294.933 413.317 295.04 413.89 295.04C414.25 295.04 414.63 294.973 415.03 294.84V296.38C414.51 296.593 413.877 296.7 413.13 296.7ZM418.407 296.5L415.907 287.02H418.087L419.727 293.92L421.587 288.18V287.02H423.247L425.307 293.92L426.947 287.02H429.107L426.627 296.5H424.567L422.547 290.3L420.487 296.5H418.407ZM433.29 296.7C432.69 296.7 432.13 296.593 431.61 296.38C431.104 296.167 430.697 295.847 430.39 295.42C430.084 294.98 429.93 294.44 429.93 293.8C429.93 292.893 430.237 292.167 430.85 291.62C431.477 291.06 432.437 290.78 433.73 290.78H436.77V290.36C436.77 289.907 436.697 289.547 436.55 289.28C436.417 289.013 436.164 288.82 435.79 288.7C435.43 288.58 434.897 288.52 434.19 288.52C433.07 288.52 432.024 288.687 431.05 289.02V287.4C431.477 287.227 431.997 287.087 432.61 286.98C433.224 286.873 433.884 286.82 434.59 286.82C435.977 286.82 437.03 287.1 437.75 287.66C438.484 288.22 438.85 289.133 438.85 290.4V296.5H436.99L436.85 295.54C436.464 295.913 435.984 296.2 435.41 296.4C434.85 296.6 434.144 296.7 433.29 296.7ZM433.87 295.14C434.524 295.14 435.09 295.033 435.57 294.82C436.064 294.593 436.464 294.293 436.77 293.92V292.26H433.77C433.13 292.26 432.664 292.387 432.37 292.64C432.09 292.88 431.95 293.253 431.95 293.76C431.95 294.253 432.117 294.607 432.45 294.82C432.784 295.033 433.257 295.14 433.87 295.14ZM441.268 296.5V287.02H443.268L443.388 288.12C443.841 287.827 444.381 287.56 445.008 287.32C445.634 287.08 446.254 286.913 446.868 286.82V288.48C446.494 288.547 446.088 288.647 445.648 288.78C445.221 288.9 444.814 289.04 444.428 289.2C444.041 289.347 443.714 289.5 443.448 289.66V296.5H441.268ZM452.865 296.7C451.211 296.7 449.931 296.293 449.025 295.48C448.118 294.667 447.665 293.42 447.665 291.74C447.665 290.22 448.051 289.02 448.825 288.14C449.598 287.26 450.771 286.82 452.345 286.82C453.785 286.82 454.865 287.2 455.585 287.96C456.318 288.707 456.685 289.673 456.685 290.86V292.62H449.745C449.851 293.54 450.185 294.173 450.745 294.52C451.305 294.867 452.158 295.04 453.305 295.04C453.785 295.04 454.278 294.993 454.785 294.9C455.291 294.807 455.731 294.687 456.105 294.54V296.14C455.678 296.327 455.185 296.467 454.625 296.56C454.078 296.653 453.491 296.7 452.865 296.7ZM449.745 291.2H454.765V290.54C454.765 289.887 454.585 289.38 454.225 289.02C453.865 288.647 453.258 288.46 452.405 288.46C451.391 288.46 450.691 288.68 450.305 289.12C449.931 289.56 449.745 290.253 449.745 291.2ZM458.407 298.04V296.5H467.487V298.04H458.407ZM473.247 296.7C472.234 296.7 471.474 296.433 470.967 295.9C470.474 295.353 470.227 294.613 470.227 293.68V288.72H468.827V287.02H470.227V284.84L472.387 284.18V287.02H474.907L474.767 288.72H472.387V293.56C472.387 294.107 472.514 294.493 472.767 294.72C473.021 294.933 473.434 295.04 474.007 295.04C474.367 295.04 474.747 294.973 475.147 294.84V296.38C474.627 296.593 473.994 296.7 473.247 296.7ZM481.615 296.7C479.961 296.7 478.681 296.293 477.775 295.48C476.868 294.667 476.415 293.42 476.415 291.74C476.415 290.22 476.801 289.02 477.575 288.14C478.348 287.26 479.521 286.82 481.095 286.82C482.535 286.82 483.615 287.2 484.335 287.96C485.068 288.707 485.435 289.673 485.435 290.86V292.62H478.495C478.601 293.54 478.935 294.173 479.495 294.52C480.055 294.867 480.908 295.04 482.055 295.04C482.535 295.04 483.028 294.993 483.535 294.9C484.041 294.807 484.481 294.687 484.855 294.54V296.14C484.428 296.327 483.935 296.467 483.375 296.56C482.828 296.653 482.241 296.7 481.615 296.7ZM478.495 291.2H483.515V290.54C483.515 289.887 483.335 289.38 482.975 289.02C482.615 288.647 482.008 288.46 481.155 288.46C480.141 288.46 479.441 288.68 479.055 289.12C478.681 289.56 478.495 290.253 478.495 291.2ZM490.619 296.7C489.966 296.7 489.339 296.653 488.739 296.56C488.153 296.467 487.666 296.353 487.279 296.22V294.38C487.733 294.553 488.233 294.687 488.779 294.78C489.326 294.873 489.846 294.92 490.339 294.92C491.086 294.92 491.619 294.853 491.939 294.72C492.259 294.587 492.419 294.327 492.419 293.94C492.419 293.66 492.319 293.44 492.119 293.28C491.933 293.12 491.646 292.973 491.259 292.84C490.886 292.707 490.406 292.547 489.819 292.36C489.259 292.173 488.773 291.973 488.359 291.76C487.946 291.533 487.626 291.247 487.399 290.9C487.173 290.553 487.059 290.1 487.059 289.54C487.059 288.673 487.373 288.007 487.999 287.54C488.626 287.06 489.633 286.82 491.019 286.82C491.566 286.82 492.086 286.86 492.579 286.94C493.073 287.02 493.493 287.12 493.839 287.24V289.06C493.466 288.913 493.053 288.8 492.599 288.72C492.159 288.64 491.746 288.6 491.359 288.6C490.666 288.6 490.139 288.66 489.779 288.78C489.433 288.9 489.259 289.14 489.259 289.5C489.259 289.873 489.439 290.14 489.799 290.3C490.173 290.447 490.766 290.653 491.579 290.92C492.326 291.147 492.919 291.387 493.359 291.64C493.799 291.893 494.113 292.2 494.299 292.56C494.499 292.907 494.599 293.36 494.599 293.92C494.599 294.853 494.259 295.553 493.579 296.02C492.899 296.473 491.913 296.7 490.619 296.7ZM500.064 296.7C499.05 296.7 498.29 296.433 497.784 295.9C497.29 295.353 497.044 294.613 497.044 293.68V288.72H495.644V287.02H497.044V284.84L499.204 284.18V287.02H501.724L501.584 288.72H499.204V293.56C499.204 294.107 499.33 294.493 499.584 294.72C499.837 294.933 500.25 295.04 500.824 295.04C501.184 295.04 501.564 294.973 501.964 294.84V296.38C501.444 296.593 500.81 296.7 500.064 296.7ZM504.431 285.04V283.24H506.811V285.04H504.431ZM504.611 296.5V288.68H503.171L503.371 287.02H506.791V296.5H504.611ZM509.334 296.5V287.02H511.334L511.434 288.02C511.861 287.687 512.368 287.407 512.954 287.18C513.554 286.94 514.214 286.82 514.934 286.82C516.161 286.82 517.054 287.107 517.614 287.68C518.174 288.253 518.454 289.147 518.454 290.36V296.5H516.294V290.46C516.294 289.727 516.141 289.213 515.834 288.92C515.541 288.627 514.981 288.48 514.154 288.48C513.661 288.48 513.174 288.58 512.694 288.78C512.228 288.98 511.834 289.24 511.514 289.56V296.5H509.334ZM524.737 300.02C524.03 300.02 523.323 299.973 522.617 299.88C521.91 299.8 521.31 299.673 520.817 299.5V297.82C521.35 297.993 521.963 298.127 522.657 298.22C523.35 298.313 524.01 298.36 524.637 298.36C525.597 298.36 526.297 298.307 526.737 298.2C527.177 298.093 527.397 297.853 527.397 297.48C527.397 297.2 527.29 297 527.077 296.88C526.863 296.773 526.457 296.72 525.857 296.72H523.297C521.577 296.72 520.717 296.113 520.717 294.9C520.717 294.513 520.83 294.153 521.057 293.82C521.283 293.487 521.643 293.233 522.137 293.06C521.59 292.793 521.183 292.427 520.917 291.96C520.663 291.493 520.537 290.933 520.537 290.28C520.537 289.067 520.897 288.187 521.617 287.64C522.35 287.093 523.443 286.82 524.897 286.82C525.203 286.82 525.523 286.847 525.857 286.9C526.19 286.94 526.45 286.98 526.637 287.02H530.117L530.057 288.44H528.457C528.71 288.653 528.897 288.92 529.017 289.24C529.137 289.56 529.197 289.907 529.197 290.28C529.197 291.293 528.89 292.093 528.277 292.68C527.663 293.253 526.737 293.54 525.497 293.54C525.283 293.54 525.083 293.533 524.897 293.52C524.723 293.493 524.53 293.467 524.317 293.44C523.917 293.48 523.557 293.587 523.237 293.76C522.917 293.933 522.757 294.167 522.757 294.46C522.757 294.66 522.837 294.807 522.997 294.9C523.157 294.98 523.423 295.02 523.797 295.02H526.457C527.403 295.02 528.13 295.227 528.637 295.64C529.157 296.04 529.417 296.627 529.417 297.4C529.417 298.333 529.01 299 528.197 299.4C527.397 299.813 526.243 300.02 524.737 300.02ZM524.897 292.16C525.763 292.16 526.363 292.013 526.697 291.72C527.043 291.427 527.217 290.927 527.217 290.22C527.217 289.513 527.043 289 526.697 288.68C526.363 288.36 525.763 288.2 524.897 288.2C524.083 288.2 523.49 288.353 523.117 288.66C522.743 288.967 522.557 289.487 522.557 290.22C522.557 290.9 522.73 291.393 523.077 291.7C523.437 292.007 524.043 292.16 524.897 292.16Z" fill="#616264"/>
<path d="M552.46 296.5L553.54 293.06H551.86V291.6H554L554.96 288.54H552.78V287.06H555.42L556.5 283.62H558.38L557.3 287.06H560.68L561.76 283.62H563.66L562.58 287.06H564.18V288.54H562.1L561.14 291.6H563.26V293.06H560.68L559.6 296.5H557.72L558.8 293.06H555.4L554.32 296.5H552.46ZM555.86 291.6H559.26L560.22 288.54H556.82L555.86 291.6ZM566.303 296.5V287.02H568.303L568.403 288.02C568.87 287.647 569.383 287.353 569.943 287.14C570.503 286.927 571.103 286.82 571.743 286.82C572.423 286.82 572.95 286.933 573.323 287.16C573.71 287.373 574.003 287.673 574.203 288.06C574.643 287.7 575.15 287.407 575.723 287.18C576.296 286.94 576.983 286.82 577.783 286.82C578.876 286.82 579.683 287.1 580.203 287.66C580.723 288.22 580.983 289.08 580.983 290.24V296.5H578.843V290.46C578.843 289.727 578.69 289.213 578.383 288.92C578.076 288.627 577.576 288.48 576.883 288.48C576.43 288.48 575.996 288.56 575.583 288.72C575.183 288.88 574.836 289.12 574.543 289.44C574.583 289.587 574.61 289.74 574.623 289.9C574.636 290.06 574.643 290.233 574.643 290.42V296.5H572.623V290.48C572.623 289.787 572.503 289.28 572.263 288.96C572.023 288.64 571.57 288.48 570.903 288.48C570.436 288.48 569.99 288.593 569.563 288.82C569.15 289.033 568.776 289.293 568.443 289.6V296.5H566.303ZM586.099 296.7C585.499 296.7 584.939 296.593 584.419 296.38C583.912 296.167 583.506 295.847 583.199 295.42C582.892 294.98 582.739 294.44 582.739 293.8C582.739 292.893 583.046 292.167 583.659 291.62C584.286 291.06 585.246 290.78 586.539 290.78H589.579V290.36C589.579 289.907 589.506 289.547 589.359 289.28C589.226 289.013 588.972 288.82 588.599 288.7C588.239 288.58 587.706 288.52 586.999 288.52C585.879 288.52 584.832 288.687 583.859 289.02V287.4C584.286 287.227 584.806 287.087 585.419 286.98C586.032 286.873 586.692 286.82 587.399 286.82C588.786 286.82 589.839 287.1 590.559 287.66C591.292 288.22 591.659 289.133 591.659 290.4V296.5H589.799L589.659 295.54C589.272 295.913 588.792 296.2 588.219 296.4C587.659 296.6 586.952 296.7 586.099 296.7ZM586.679 295.14C587.332 295.14 587.899 295.033 588.379 294.82C588.872 294.593 589.272 294.293 589.579 293.92V292.26H586.579C585.939 292.26 585.472 292.387 585.179 292.64C584.899 292.88 584.759 293.253 584.759 293.76C584.759 294.253 584.926 294.607 585.259 294.82C585.592 295.033 586.066 295.14 586.679 295.14ZM594.076 296.5V287.02H596.076L596.176 288.02C596.603 287.687 597.11 287.407 597.696 287.18C598.296 286.94 598.956 286.82 599.676 286.82C600.903 286.82 601.796 287.107 602.356 287.68C602.916 288.253 603.196 289.147 603.196 290.36V296.5H601.036V290.46C601.036 289.727 600.883 289.213 600.576 288.92C600.283 288.627 599.723 288.48 598.896 288.48C598.403 288.48 597.916 288.58 597.436 288.78C596.97 288.98 596.576 289.24 596.256 289.56V296.5H594.076ZM609.059 296.7C607.926 296.7 607.052 296.387 606.439 295.76C605.839 295.133 605.539 294.213 605.539 293V287.02H607.719V293C607.719 293.707 607.892 294.227 608.239 294.56C608.586 294.893 609.119 295.06 609.839 295.06C610.372 295.06 610.866 294.96 611.319 294.76C611.772 294.56 612.166 294.293 612.499 293.96V287.02H614.659V296.5H612.679L612.579 295.52C612.152 295.853 611.646 296.133 611.059 296.36C610.472 296.587 609.806 296.7 609.059 296.7ZM619.868 296.7C619.268 296.7 618.708 296.593 618.188 296.38C617.682 296.167 617.275 295.847 616.968 295.42C616.662 294.98 616.508 294.44 616.508 293.8C616.508 292.893 616.815 292.167 617.428 291.62C618.055 291.06 619.015 290.78 620.308 290.78H623.348V290.36C623.348 289.907 623.275 289.547 623.128 289.28C622.995 289.013 622.742 288.82 622.368 288.7C622.008 288.58 621.475 288.52 620.768 288.52C619.648 288.52 618.602 288.687 617.628 289.02V287.4C618.055 287.227 618.575 287.087 619.188 286.98C619.802 286.873 620.462 286.82 621.168 286.82C622.555 286.82 623.608 287.1 624.328 287.66C625.062 288.22 625.428 289.133 625.428 290.4V296.5H623.568L623.428 295.54C623.042 295.913 622.562 296.2 621.988 296.4C621.428 296.6 620.722 296.7 619.868 296.7ZM620.448 295.14C621.102 295.14 621.668 295.033 622.148 294.82C622.642 294.593 623.042 294.293 623.348 293.92V292.26H620.348C619.708 292.26 619.242 292.387 618.948 292.64C618.668 292.88 618.528 293.253 618.528 293.76C618.528 294.253 618.695 294.607 619.028 294.82C619.362 295.033 619.835 295.14 620.448 295.14ZM630.206 296.7C629.433 296.7 628.846 296.513 628.446 296.14C628.046 295.753 627.846 295.12 627.846 294.24V283.02H630.026V294.04C630.026 294.413 630.093 294.667 630.226 294.8C630.359 294.933 630.559 295 630.826 295C631.146 295 631.453 294.96 631.746 294.88V296.46C631.493 296.553 631.246 296.613 631.006 296.64C630.779 296.68 630.513 296.7 630.206 296.7ZM633.051 298.04V296.5H642.131V298.04H633.051ZM647.892 296.7C646.878 296.7 646.118 296.433 645.612 295.9C645.118 295.353 644.872 294.613 644.872 293.68V288.72H643.472V287.02H644.872V284.84L647.032 284.18V287.02H649.552L649.412 288.72H647.032V293.56C647.032 294.107 647.158 294.493 647.412 294.72C647.665 294.933 648.078 295.04 648.652 295.04C649.012 295.04 649.392 294.973 649.792 294.84V296.38C649.272 296.593 648.638 296.7 647.892 296.7ZM656.259 296.7C654.606 296.7 653.326 296.293 652.419 295.48C651.513 294.667 651.059 293.42 651.059 291.74C651.059 290.22 651.446 289.02 652.219 288.14C652.993 287.26 654.166 286.82 655.739 286.82C657.179 286.82 658.259 287.2 658.979 287.96C659.713 288.707 660.079 289.673 660.079 290.86V292.62H653.139C653.246 293.54 653.579 294.173 654.139 294.52C654.699 294.867 655.553 295.04 656.699 295.04C657.179 295.04 657.673 294.993 658.179 294.9C658.686 294.807 659.126 294.687 659.499 294.54V296.14C659.073 296.327 658.579 296.467 658.019 296.56C657.473 296.653 656.886 296.7 656.259 296.7ZM653.139 291.2H658.159V290.54C658.159 289.887 657.979 289.38 657.619 289.02C657.259 288.647 656.653 288.46 655.799 288.46C654.786 288.46 654.086 288.68 653.699 289.12C653.326 289.56 653.139 290.253 653.139 291.2ZM665.264 296.7C664.61 296.7 663.984 296.653 663.384 296.56C662.797 296.467 662.31 296.353 661.924 296.22V294.38C662.377 294.553 662.877 294.687 663.424 294.78C663.97 294.873 664.49 294.92 664.984 294.92C665.73 294.92 666.264 294.853 666.584 294.72C666.904 294.587 667.064 294.327 667.064 293.94C667.064 293.66 666.964 293.44 666.764 293.28C666.577 293.12 666.29 292.973 665.904 292.84C665.53 292.707 665.05 292.547 664.464 292.36C663.904 292.173 663.417 291.973 663.004 291.76C662.59 291.533 662.27 291.247 662.044 290.9C661.817 290.553 661.704 290.1 661.704 289.54C661.704 288.673 662.017 288.007 662.644 287.54C663.27 287.06 664.277 286.82 665.664 286.82C666.21 286.82 666.73 286.86 667.224 286.94C667.717 287.02 668.137 287.12 668.484 287.24V289.06C668.11 288.913 667.697 288.8 667.244 288.72C666.804 288.64 666.39 288.6 666.004 288.6C665.31 288.6 664.784 288.66 664.424 288.78C664.077 288.9 663.904 289.14 663.904 289.5C663.904 289.873 664.084 290.14 664.444 290.3C664.817 290.447 665.41 290.653 666.224 290.92C666.97 291.147 667.564 291.387 668.004 291.64C668.444 291.893 668.757 292.2 668.944 292.56C669.144 292.907 669.244 293.36 669.244 293.92C669.244 294.853 668.904 295.553 668.224 296.02C667.544 296.473 666.557 296.7 665.264 296.7ZM674.708 296.7C673.695 296.7 672.935 296.433 672.428 295.9C671.935 295.353 671.688 294.613 671.688 293.68V288.72H670.288V287.02H671.688V284.84L673.848 284.18V287.02H676.368L676.228 288.72H673.848V293.56C673.848 294.107 673.975 294.493 674.228 294.72C674.481 294.933 674.895 295.04 675.468 295.04C675.828 295.04 676.208 294.973 676.608 294.84V296.38C676.088 296.593 675.455 296.7 674.708 296.7ZM679.076 285.04V283.24H681.456V285.04H679.076ZM679.256 296.5V288.68H677.816L678.016 287.02H681.436V296.5H679.256ZM683.979 296.5V287.02H685.979L686.079 288.02C686.505 287.687 687.012 287.407 687.599 287.18C688.199 286.94 688.859 286.82 689.579 286.82C690.805 286.82 691.699 287.107 692.259 287.68C692.819 288.253 693.099 289.147 693.099 290.36V296.5H690.939V290.46C690.939 289.727 690.785 289.213 690.479 288.92C690.185 288.627 689.625 288.48 688.799 288.48C688.305 288.48 687.819 288.58 687.339 288.78C686.872 288.98 686.479 289.24 686.159 289.56V296.5H683.979ZM699.381 300.02C698.675 300.02 697.968 299.973 697.261 299.88C696.555 299.8 695.955 299.673 695.461 299.5V297.82C695.995 297.993 696.608 298.127 697.301 298.22C697.995 298.313 698.655 298.36 699.281 298.36C700.241 298.36 700.941 298.307 701.381 298.2C701.821 298.093 702.041 297.853 702.041 297.48C702.041 297.2 701.935 297 701.721 296.88C701.508 296.773 701.101 296.72 700.501 296.72H697.941C696.221 296.72 695.361 296.113 695.361 294.9C695.361 294.513 695.475 294.153 695.701 293.82C695.928 293.487 696.288 293.233 696.781 293.06C696.235 292.793 695.828 292.427 695.561 291.96C695.308 291.493 695.181 290.933 695.181 290.28C695.181 289.067 695.541 288.187 696.261 287.64C696.995 287.093 698.088 286.82 699.541 286.82C699.848 286.82 700.168 286.847 700.501 286.9C700.835 286.94 701.095 286.98 701.281 287.02H704.761L704.701 288.44H703.101C703.355 288.653 703.541 288.92 703.661 289.24C703.781 289.56 703.841 289.907 703.841 290.28C703.841 291.293 703.535 292.093 702.921 292.68C702.308 293.253 701.381 293.54 700.141 293.54C699.928 293.54 699.728 293.533 699.541 293.52C699.368 293.493 699.175 293.467 698.961 293.44C698.561 293.48 698.201 293.587 697.881 293.76C697.561 293.933 697.401 294.167 697.401 294.46C697.401 294.66 697.481 294.807 697.641 294.9C697.801 294.98 698.068 295.02 698.441 295.02H701.101C702.048 295.02 702.775 295.227 703.281 295.64C703.801 296.04 704.061 296.627 704.061 297.4C704.061 298.333 703.655 299 702.841 299.4C702.041 299.813 700.888 300.02 699.381 300.02ZM699.541 292.16C700.408 292.16 701.008 292.013 701.341 291.72C701.688 291.427 701.861 290.927 701.861 290.22C701.861 289.513 701.688 289 701.341 288.68C701.008 288.36 700.408 288.2 699.541 288.2C698.728 288.2 698.135 288.353 697.761 288.66C697.388 288.967 697.201 289.487 697.201 290.22C697.201 290.9 697.375 291.393 697.721 291.7C698.081 292.007 698.688 292.16 699.541 292.16Z" fill="#616264"/>
</g>
<defs>
<filter id="filter0_dddd_2_21" x="180" y="95" width="920" height="246" filterUnits="userSpaceOnUse" color-interpolation-filters="sRGB">
<feFlood flood-opacity="0" result="BackgroundImageFix"/>
<feColorMatrix in="SourceAlpha" type="matrix" values="0 0 0 0 0 0 0 0 0 0 0 0 0 0 0 0 0 0 127 0" result="hardAlpha"/>
<feOffset dx="4"/>
<feGaussianBlur stdDeviation="2"/>
<feComposite in2="hardAlpha" operator="out"/>
<feColorMatrix type="matrix" values="0 0 0 0 0.145098 0 0 0 0 0.14902 0 0 0 0 0.156863 0 0 0 0.5 0"/>
<feBlend mode="normal" in2="BackgroundImageFix" result="effect1_dropShadow_2_21"/>
<feColorMatrix in="SourceAlpha" type="matrix" values="0 0 0 0 0 0 0 0 0 0 0 0 0 0 0 0 0 0 127 0" result="hardAlpha"/>
<feOffset dy="4"/>
<feGaussianBlur stdDeviation="2"/>
<feComposite in2="hardAlpha" operator="out"/>
<feColorMatrix type="matrix" values="0 0 0 0 0.145098 0 0 0 0 0.14902 0 0 0 0 0.156863 0 0 0 0.5 0"/>
<feBlend mode="normal" in2="effect1_dropShadow_2_21" result="effect2_dropShadow_2_21"/>
<feColorMatrix in="SourceAlpha" type="matrix" values="0 0 0 0 0 0 0 0 0 0 0 0 0 0 0 0 0 0 127 0" result="hardAlpha"/>
<feOffset dy="-4"/>
<feGaussianBlur stdDeviation="2"/>
<feComposite in2="hardAlpha" operator="out"/>
<feColorMatrix type="matrix" values="0 0 0 0 0.145098 0 0 0 0 0.14902 0 0 0 0 0.156863 0 0 0 0.5 0"/>
<feBlend mode="normal" in2="effect2_dropShadow_2_21" result="effect3_dropShadow_2_21"/>
<feColorMatrix in="SourceAlpha" type="matrix" values="0 0 0 0 0 0 0 0 0 0 0 0 0 0 0 0 0 0 127 0" result="hardAlpha"/>
<feOffset dx="-4"/>
<feGaussianBlur stdDeviation="2"/>
<feComposite in2="hardAlpha" operator="out"/>
<feColorMatrix type="matrix" values="0 0 0 0 0.145098 0 0 0 0 0.14902 0 0 0 0 0.156863 0 0 0 0.5 0"/>
<feBlend mode="normal" in2="effect3_dropShadow_2_21" result="effect4_dropShadow_2_21"/>
<feBlend mode="normal" in="SourceGraphic" in2="effect4_dropShadow_2_21" result="shape"/>
</filter>
</defs>
</svg>
